<svg id="Capa_1" data-name="Capa 1" xmlns="http://www.w3.org/2000/svg" viewBox="0 0 16 16"><defs><style>.cls-1{fill:#252038;}.cls-2{fill:#db4d4e;}.cls-3{fill:#f0efef;}</style></defs><title>Imagen Chiquita</title><rect class="cls-1" x="8" width="8" height="16"/><rect class="cls-2" width="8" height="16"/><path class="cls-3" d="M11.93,11.79A2.17,2.17,0,0,1,9.58,9.65a.34.34,0,0,1,.34-.34.35.35,0,0,1,.35.34,1.49,1.49,0,0,0,1.66,1.45,1.5,1.5,0,0,0,1.68-1.45c0-.93-.67-1.17-1.74-1.48s-2.13-.61-2.13-2a2,2,0,0,1,2.19-2,2,2,0,0,1,2.2,2,.34.34,0,0,1-.68,0,1.36,1.36,0,0,0-1.52-1.31,1.35,1.35,0,0,0-1.5,1.31c0,.8.61,1,1.63,1.32s2.23.64,2.23,2.13A2.18,2.18,0,0,1,11.93,11.79Z"/><path class="cls-3" d="M3.16,9.55a1.12,1.12,0,0,0,.2.72.71.71,0,0,0,.58.26.76.76,0,0,0,.56-.24.85.85,0,0,0,.22-.61.87.87,0,0,0-.17-.54,1.18,1.18,0,0,0-.49-.39L3,8.29a2.08,2.08,0,0,1-.9-.79,2.07,2.07,0,0,1-.35-1.15,2,2,0,0,1,.66-1.53,2.06,2.06,0,0,1,1.49-.61,2.06,2.06,0,0,1,1.49.61,2.06,2.06,0,0,1,.65,1.53H4.62a1,1,0,0,0-.18-.65.6.6,0,0,0-.5-.23.69.69,0,0,0-.5.2.65.65,0,0,0-.19.48A.9.9,0,0,0,3.86,7l1,.47A2.28,2.28,0,0,1,6.18,9.52a2.2,2.2,0,0,1-.16.84,2.23,2.23,0,0,1-.47.73,2.09,2.09,0,0,1-1.61.7,2.16,2.16,0,0,1-1.62-.7,2.24,2.24,0,0,1-.45-.72,2.15,2.15,0,0,1-.17-.82V9.46H3.16Z"/></svg>